<?xml version="1.0" standalone="no"?>
<!DOCTYPE svg PUBLIC "-//W3C//DTD SVG 20010904//EN"
 "http://www.w3.org/TR/2001/REC-SVG-20010904/DTD/svg10.dtd">
<svg version="1.0" xmlns="http://www.w3.org/2000/svg"
 width="512.000000pt" height="512.000000pt" viewBox="0 0 512.000000 512.000000"
 preserveAspectRatio="xMidYMid meet">
<metadata>
Created by potrace 1.11, written by Peter Selinger 2001-2013
</metadata>
<g transform="translate(0.000000,512.000000) scale(0.100000,-0.100000)"
fill="#000000" stroke="none">
<path d="M2948 3705 c-4 -4 -114 -10 -340 -18 -27 -1 -48 -4 -48 -7 0 -3 -15
-5 -33 -6 -17 -1 -57 -4 -87 -8 -30 -4 -65 -8 -77 -9 -13 0 -23 -3 -23 -7 0
-3 -12 -6 -27 -7 -16 -1 -41 -4 -58 -8 -16 -3 -39 -7 -50 -8 -11 -1 -22 -5
-25 -8 -3 -4 -21 -9 -40 -12 -19 -3 -46 -9 -60 -14 -14 -5 -47 -8 -75 -6 -134
11 -531 3 -553 -11 -7 -4 -12 -2 -12 6 0 10 -2 10 -9 -1 -7 -10 -13 -11 -31
-1 -12 7 -20 8 -16 2 3 -6 -9 -9 -32 -8 -20 2 -41 0 -46 -2 -5 -3 -34 -7 -63
-8 -29 -2 -58 -6 -63 -9 -6 -3 -10 -2 -10 3 0 10 -42 8 -59 -2 -5 -4 -12 -2
-16 4 -3 5 -11 10 -16 10 -6 0 -8 -4 -5 -8 5 -8 -98 -7 -120 2 -8 3 -14 2 -14
-2 0 -4 -28 -8 -63 -8 -137 -3 -257 -9 -257 -14 0 -3 -23 -6 -51 -8 -28 -2
-61 -7 -75 -12 -14 -6 -24 -6 -24 0 0 5 -12 2 -27 -6 -16 -7 -38 -14 -50 -14
-12 0 -25 -5 -28 -10 -4 -6 -10 -8 -14 -5 -13 7 -129 -33 -190 -66 -124 -68
-165 -136 -156 -259 5 -71 11 -125 15 -125 1 0 4 -13 6 -29 7 -41 62 -149 93
-184 l27 -29 -1 -177 c-1 -97 1 -176 4 -176 4 0 7 -17 8 -38 2 -55 18 -177 23
-177 1 0 3 -9 5 -20 1 -11 6 -33 9 -50 4 -16 10 -43 13 -60 3 -16 9 -38 14
-47 5 -9 9 -21 8 -25 -1 -4 0 -11 1 -15 1 -5 3 -11 5 -15 1 -5 4 -15 8 -23 3
-8 11 -33 17 -55 13 -44 13 -46 60 -160 30 -71 108 -231 135 -274 109 -177
285 -359 384 -400 17 -8 31 -17 31 -22 0 -5 10 -9 23 -9 13 0 28 -5 34 -11 6
-6 17 -12 24 -13 8 -2 21 -6 29 -9 51 -19 188 -25 336 -13 l70 6 25 -40 c13
-22 27 -40 31 -40 3 0 5 -8 3 -17 -1 -10 0 -22 4 -28 3 -5 7 -18 8 -27 3 -16
67 -209 80 -238 3 -8 7 -17 8 -20 8 -30 84 -176 119 -228 76 -113 131 -165
219 -207 54 -25 148 -27 195 -4 l38 19 65 -63 c83 -82 135 -109 220 -113 53
-2 74 1 107 19 58 31 132 102 132 127 0 6 3 10 8 10 8 0 34 55 32 66 -1 4 3
10 10 14 6 4 12 13 13 21 2 8 6 20 10 27 5 6 6 12 2 12 -3 0 0 10 7 23 7 12
13 25 14 30 1 4 3 9 4 12 1 3 4 10 5 15 1 6 3 11 5 13 1 1 3 10 5 20 9 46 1
45 275 44 143 0 259 -2 256 -4 -6 -6 21 -98 44 -148 19 -42 99 -139 107 -131
3 3 12 -1 20 -9 8 -8 26 -16 41 -16 15 -1 45 -2 67 -3 37 -2 94 11 105 25 3 3
19 12 36 21 l31 15 26 -53 c49 -99 105 -142 196 -151 116 -11 233 65 367 239
24 31 44 61 44 67 0 6 5 11 10 11 6 0 10 4 10 9 0 11 61 113 73 122 5 3 9 9 8
12 -1 13 32 82 41 88 5 3 9 9 9 13 -1 3 6 20 14 36 9 17 12 30 8 30 -5 0 -3 4
3 8 5 4 30 54 54 112 70 171 76 182 135 245 31 32 64 72 73 87 9 15 20 28 24
28 4 0 8 6 8 13 0 7 8 22 19 33 10 11 24 37 32 57 7 20 16 34 21 31 4 -3 8 3
8 13 0 10 6 27 13 38 8 11 24 49 36 85 13 36 27 74 32 85 10 25 40 140 46 180
2 17 8 53 13 80 33 182 31 551 -5 735 -4 19 -8 44 -10 55 -8 45 -16 82 -26
113 -6 18 -12 39 -13 45 -4 23 -29 92 -36 102 -5 6 -8 12 -8 15 0 3 -7 22 -16
44 -9 21 -16 42 -16 46 0 4 -7 13 -15 20 -9 7 -14 19 -11 26 3 7 2 14 -2 16
-5 2 -19 21 -32 43 -28 46 -22 38 -99 135 -55 69 -93 108 -179 183 -18 15 -32
25 -32 22 0 -3 -10 4 -22 15 -32 29 -160 103 -243 140 -129 57 -147 64 -157
62 -5 -1 -8 3 -8 9 0 5 -4 8 -9 4 -5 -3 -33 4 -61 15 -28 11 -61 20 -73 20
-13 0 -28 5 -35 12 -7 7 -12 9 -12 6 0 -4 -15 -2 -32 3 -18 6 -44 12 -58 15
-14 2 -36 6 -50 8 -14 3 -25 5 -25 7 0 1 -9 3 -21 4 -11 1 -36 5 -55 8 -39 8
-120 18 -165 21 -17 2 -37 6 -44 11 -9 6 -11 4 -5 -5 6 -9 4 -11 -5 -5 -16 10
-52 13 -239 20 -74 3 -136 7 -139 10 -3 3 -11 0 -19 -6 -7 -6 -13 -8 -13 -3 0
5 -18 9 -40 9 -22 1 -40 -3 -40 -7 0 -5 -8 -4 -19 1 -10 6 -21 8 -23 6z"/>
</g>
</svg>
